<svg xmlns="http://www.w3.org/2000/svg" width="23.946" height="24.213" viewBox="0 0 13.969 14.125">
  <metadata><?xpacket begin="﻿" id="W5M0MpCehiHzreSzNTczkc9d"?>
<x:xmpmeta xmlns:x="adobe:ns:meta/" x:xmptk="Adobe XMP Core 5.6-c142 79.160924, 2017/07/13-01:06:39        ">
   <rdf:RDF xmlns:rdf="http://www.w3.org/1999/02/22-rdf-syntax-ns#">
      <rdf:Description rdf:about=""/>
   </rdf:RDF>
</x:xmpmeta>
                                                                                                    
                                                                                                    
                                                                                                    
                                                                                                    
                                                                                                    
                                                                                                    
                                                                                                    
                                                                                                    
                                                                                                    
                                                                                                    
                                                                                                    
                                                                                                    
                                                                                                    
                                                                                                    
                                                                                                    
                                                                                                    
                                                                                                    
                                                                                                    
                                                                                                    
                                                                                                    
                           
<?xpacket end="w"?></metadata>
<defs>
    <style>
      .cls-1 {
        fill: #bababa;
        fill-rule: evenodd;
      }
    </style>
  </defs>
  <path id="icon_fresh" class="cls-1" d="M793.386,456.158l1.3-1.167a7.749,7.749,0,0,0,4.924,2.059,6.945,6.945,0,0,0,6.728-5.223l-2.758-.706a4.126,4.126,0,0,1-4,3.1,5.033,5.033,0,0,1-2.826-1.151l1.363-1.23L792.37,450.3Zm11.94-12.317-1.3,1.166a7.748,7.748,0,0,0-4.924-2.058,6.946,6.946,0,0,0-6.728,5.222l2.759,0.706a4.124,4.124,0,0,1,3.994-3.1,5.024,5.024,0,0,1,2.826,1.151l-1.363,1.229,5.747,1.543Z" transform="translate(-792.375 -442.938)"/>
</svg>
